<?xml version="1.0" standalone="no"?>
<!DOCTYPE svg PUBLIC "-//W3C//DTD SVG 20010904//EN"
 "http://www.w3.org/TR/2001/REC-SVG-20010904/DTD/svg10.dtd">
<svg version="1.0" xmlns="http://www.w3.org/2000/svg"
 width="665.000000pt" height="375.000000pt" viewBox="0 0 665.000000 375.000000"
 preserveAspectRatio="xMidYMid meet">

<g transform="translate(0.000000,375.000000) scale(0.100000,-0.100000)"
fill="#000000" stroke="none">
<path d="M3585 2934 c-66 -18 -127 -38 -135 -42 -8 -5 -18 -29 -21 -53 l-6
-44 -1 43 c-1 23 -6 42 -12 42 -9 0 -90 -30 -98 -36 -2 -1 -7 -36 -12 -76 l-7
-73 -2 68 c0 37 -5 67 -9 67 -4 0 -37 -19 -72 -42 l-65 -43 2 -85 c1 -58 -1
-76 -7 -55 -4 17 -8 47 -9 68 0 20 -5 37 -10 37 -15 0 -61 -67 -93 -137 -28
-58 -32 -78 -32 -153 -1 -78 16 -160 32 -160 4 0 15 21 24 48 51 141 170 275
359 406 63 44 141 99 174 124 52 39 56 40 30 12 -16 -18 -66 -60 -110 -93
-185 -141 -251 -211 -324 -349 -40 -75 -81 -186 -81 -221 0 -17 3 -17 31 7 17
14 80 51 140 82 119 61 217 129 243 169 9 14 15 25 14 25 -2 0 -39 -7 -82 -15
-44 -8 -81 -13 -83 -11 -2 2 38 14 89 26 102 25 121 36 150 94 l20 39 -34 -6
c-95 -18 -118 -15 -41 4 l81 21 27 61 c24 55 75 242 75 275 0 17 -9 15 -145
-24z"/>
<path d="M3395 2265 c-38 -13 -95 -30 -125 -39 -77 -21 -162 -75 -174 -108
-14 -40 -3 -43 46 -12 23 15 87 47 140 70 82 36 188 98 188 111 0 2 -1 2 -2 2
-2 -1 -34 -12 -73 -24z"/>
</g>
</svg>
