<?xml version="1.0" standalone="no"?>
<!DOCTYPE svg PUBLIC "-//W3C//DTD SVG 20010904//EN"
 "http://www.w3.org/TR/2001/REC-SVG-20010904/DTD/svg10.dtd">
<svg version="1.0" xmlns="http://www.w3.org/2000/svg"
 width="366.000000pt" height="204.000000pt" viewBox="0 0 366.000000 204.000000"
 preserveAspectRatio="xMidYMid meet">

<g transform="translate(0.000000,204.000000) scale(0.100000,-0.100000)"
fill="#000000" stroke="none">
<path d="M790 1369 c-106 -29 -118 -35 -123 -66 l-4 -28 -2 28 c-1 32 -3 32
-41 12 -26 -13 -30 -22 -32 -58 l-1 -42 -6 42 -6 42 -42 -27 c-34 -22 -43 -33
-44 -57 0 -23 -2 -26 -8 -12 -6 18 -7 18 -23 0 -51 -58 -76 -175 -51 -242 9
-21 12 -18 41 41 40 81 120 162 242 244 97 66 86 52 -36 -47 -79 -63 -137
-144 -171 -237 -13 -35 -23 -67 -23 -72 0 -5 19 3 43 19 23 15 70 43 103 60
34 18 76 47 94 64 28 27 30 32 14 37 -14 5 -12 8 11 13 19 3 37 17 49 38 l19
32 -31 -5 c-39 -6 -33 7 7 15 24 5 32 15 49 59 21 58 46 158 41 162 -2 1 -33
-5 -69 -15z m-103 -305 c-3 -3 -12 -4 -19 -1 -8 3 -5 6 6 6 11 1 17 -2 13 -5z"/>
<path d="M2710 1195 l0 -165 30 0 29 0 0 123 c0 67 -2 141 -6 165 -4 36 -9 42
-29 42 l-24 0 0 -165z"/>
<path d="M1040 1185 l0 -155 30 0 30 0 0 113 0 112 51 -112 c37 -80 57 -113
69 -113 12 0 31 31 65 108 26 59 51 111 56 116 5 6 9 -39 9 -107 l0 -117 30 0
c24 0 30 4 31 23 0 12 2 82 3 155 l3 132 -56 0 -56 0 -40 -99 c-22 -55 -42
-98 -45 -96 -3 2 -23 47 -45 99 l-40 96 -47 0 -48 0 0 -155z"/>
<path d="M1503 1269 c-34 -10 -38 -16 -25 -36 6 -10 16 -10 45 -1 49 15 87 -1
87 -37 0 -22 -3 -25 -24 -19 -33 8 -104 -13 -116 -36 -16 -29 -12 -75 8 -93
14 -13 38 -16 105 -16 l87 1 0 103 c0 87 -3 104 -19 119 -22 20 -104 29 -148
15z m105 -161 c3 -22 -2 -30 -23 -38 -33 -12 -65 3 -65 30 0 24 27 41 60 37
19 -1 26 -9 28 -29z"/>
<path d="M1805 1271 c-11 -4 -37 -6 -57 -3 l-38 5 0 -122 0 -121 30 0 30 0 0
85 c0 72 3 88 20 105 24 24 43 25 64 4 12 -12 16 -37 16 -105 l0 -89 30 0 30
0 0 103 c0 89 -3 106 -19 121 -22 20 -78 29 -106 17z"/>
<path d="M2030 1273 c-8 -3 -25 -15 -37 -26 -20 -17 -23 -31 -23 -87 0 -58 3
-69 25 -90 27 -25 82 -32 118 -16 32 15 18 -45 -15 -63 -24 -14 -30 -14 -64 2
-44 22 -70 8 -41 -21 13 -13 34 -17 82 -17 54 0 68 4 87 23 21 21 23 33 26
157 l4 135 -30 0 c-16 0 -49 2 -73 5 -24 2 -51 2 -59 -2z m71 -43 c15 -9 19
-22 19 -69 0 -73 -17 -93 -58 -70 -23 12 -28 23 -30 63 -2 35 2 53 14 67 20
22 28 23 55 9z"/>
<path d="M2283 1273 c-13 -2 -32 -16 -43 -30 -28 -36 -28 -130 0 -166 24 -31
74 -43 113 -28 25 10 27 9 27 -14 0 -25 -33 -55 -60 -55 -8 0 -28 7 -44 15
-37 20 -59 4 -33 -23 26 -25 137 -24 166 2 19 18 21 29 21 158 l0 138 -27 0
c-16 0 -44 2 -63 4 -19 2 -45 2 -57 -1z m68 -43 c16 -9 19 -22 19 -75 0 -55
-3 -64 -20 -70 -13 -4 -31 0 -45 9 -21 14 -25 25 -25 63 0 29 6 53 17 65 19
21 27 22 54 8z"/>
<path d="M2513 1269 c-38 -11 -47 -23 -29 -38 9 -8 22 -8 45 0 17 6 43 8 56 5
20 -5 25 -13 25 -37 0 -24 -4 -30 -16 -25 -26 10 -91 -5 -113 -26 -27 -24 -27
-72 -1 -98 17 -17 33 -19 110 -19 l90 0 0 83 c0 46 -5 97 -11 114 -16 47 -79
63 -156 41z m97 -159 c0 -38 -31 -57 -66 -41 -48 21 -21 70 39 71 23 0 27 -4
27 -30z"/>
<path d="M2843 1269 c-34 -10 -38 -16 -25 -36 6 -10 16 -10 45 -1 49 15 90 -2
85 -35 -2 -16 -9 -21 -25 -19 -12 2 -40 -2 -63 -8 -50 -14 -74 -55 -58 -102
11 -32 62 -51 106 -39 15 4 44 6 65 3 l37 -4 0 100 c0 123 -10 140 -85 147
-27 2 -65 0 -82 -6z m105 -156 c5 -31 -39 -59 -67 -43 -26 13 -28 57 -3 63 38
11 67 2 70 -20z"/>
<path d="M1225 950 c39 -4 158 -7 265 -7 164 0 180 1 100 7 -129 10 -462 10
-365 0z"/>
<path d="M2470 950 c-68 -5 -50 -6 85 -7 94 -1 208 2 255 6 71 7 58 8 -85 8
-93 -1 -208 -4 -255 -7z"/>
<path d="M599 926 c-81 -26 -139 -60 -139 -81 0 -9 3 -15 8 -13 4 2 45 23 92
45 82 40 136 73 115 72 -5 -1 -40 -11 -76 -23z"/>
<path d="M1740 846 c0 -60 3 -76 14 -76 11 0 16 14 18 48 l3 47 28 -47 c43
-71 57 -64 57 27 0 59 -3 75 -14 75 -11 0 -16 -14 -18 -47 l-3 -48 -25 45
c-14 25 -33 46 -43 48 -15 3 -17 -6 -17 -72z"/>
<path d="M1890 845 l0 -75 45 0 c25 0 45 5 45 10 0 6 -13 10 -30 10 -23 0 -30
4 -30 20 0 15 7 20 24 20 14 0 28 5 31 10 4 6 -7 10 -24 10 -26 0 -31 4 -31
25 0 21 5 25 30 25 17 0 30 5 30 10 0 6 -20 10 -45 10 l-45 0 0 -75z"/>
<path d="M2000 913 c0 -4 8 -38 17 -75 13 -51 22 -68 35 -68 12 0 19 11 24 38
10 58 17 61 29 12 14 -59 40 -65 54 -13 19 67 24 113 13 113 -11 0 -32 -59
-32 -90 0 -27 -18 10 -25 52 -9 51 -31 49 -45 -4 -6 -24 -12 -47 -14 -53 -2
-5 -10 12 -18 39 -8 28 -20 52 -26 54 -7 2 -12 0 -12 -5z"/>
<path d="M2213 913 c-27 -10 -14 -53 22 -75 21 -12 35 -27 33 -36 -4 -22 -23
-25 -41 -7 -20 19 -27 19 -27 0 0 -18 36 -34 62 -27 50 13 46 60 -7 85 -19 9
-35 21 -35 27 0 17 29 23 45 10 18 -15 30 -7 22 15 -6 14 -47 19 -74 8z"/>
<path d="M1390 850 c-52 -3 -77 -7 -54 -8 22 -1 90 -5 150 -8 101 -5 107 -4
84 10 -14 8 -38 15 -55 14 -16 -1 -73 -5 -125 -8z"/>
<path d="M2470 846 c-24 -15 -22 -15 35 -14 33 0 92 4 130 8 l70 7 -61 1 c-34
1 -81 4 -105 7 -29 4 -52 0 -69 -9z"/>
</g>
</svg>
